<?xml version="1.0" encoding="utf-8"?>
<!-- Generator: Adobe Illustrator 23.0.3, SVG Export Plug-In . SVG Version: 6.00 Build 0)  -->
<svg version="1.1" id="Capa_1" xmlns="http://www.w3.org/2000/svg" xmlns:xlink="http://www.w3.org/1999/xlink" x="0px" y="0px"
	 viewBox="0 0 1200 1200" style="enable-background:new 0 0 1200 1200;" xml:space="preserve">
<style type="text/css">
	.st0{fill:#231F20;}
</style>
<g>
	<path class="st0" d="M1041.2,346.7L637.9,138.7c-10.3-5.3-23.8-8.3-37.9-8.3c-14.2,0-27.6,2.9-37.9,8.3l-403.3,208
		c-14.6,7.5-20.7,16.1-18.2,25.5c2.5,9.4,44.1-10.6,44.1-10.6l389.9-201.1c6.5-3.3,15.8-5.2,25.5-5.2c9.6,0,19.1,2,25.5,5.2
		l389.9,201.1h-70.1c0,0,0.9,28.4,0.9,46.7v595.6c0,12.1-10.3,21.9-23.1,21.9H771.3c-12.7,0-23.1-9.8-23.1-21.9V709.5
		c0-25.7-22-46.7-49.1-46.7H500.9c-27.1,0-49.1,20.9-49.1,46.7v294.3c0,12.1-10.3,21.9-23.1,21.9H276.9c-12.7,0-23.1-9.8-23.1-21.9
		V439.7c-4.5-36.5-28.8-27.6-26.1-1.1v565.2c0,25.7,22,46.7,49.1,46.7h151.8c27.1,0,49.1-20.9,49.1-46.7V709.5
		c0-12.1,10.3-21.9,23.1-21.9h198.2c12.7,0,23.1,9.8,23.1,21.9v294.3c0,25.7,22,46.7,49.1,46.7h151.8c27.1,0,49.1-20.9,49.1-46.7
		V408.2c0-9-0.2-16.2-0.5-21.9h59c16.6,0,26.3-4.8,28.8-14.1C1062,362.8,1055.8,354.3,1041.2,346.7z"/>
</g>
</svg>
